<?xml version="1.0" encoding="utf-8"?>
<!-- Svg Vector Icons : http://www.onlinewebfonts.com/icon -->
<!DOCTYPE svg PUBLIC "-//W3C//DTD SVG 1.1//EN" "http://www.w3.org/Graphics/SVG/1.1/DTD/svg11.dtd">
<svg version="1.1" xmlns="http://www.w3.org/2000/svg" xmlns:xlink="http://www.w3.org/1999/xlink" x="0px" y="0px" viewBox="0 0 1000 1000" enable-background="new 0 0 1000 1000" xml:space="preserve">
<metadata> Svg Vector Icons : http://www.onlinewebfonts.com/icon </metadata>
<g><g transform="translate(0.000000,511.000000) scale(0.100000,-0.100000)"><path d="M100,3206.9c0-1167.6,15.3-1826,38.3-1875.8c88-157,191.4-84.2,869,585.7l662.3,658.4l968.5-960.9C3273.5,979,3641,642.1,3709.9,623c168.5-38.3,428.8,3.8,555.1,91.9c206.7,149.3,306.3,528.3,195.2,746.5c-23,45.9-467,509.2-983.8,1029.8l-945.6,949.4l662.3,662.3c669.9,677.6,742.7,781,585.7,869c-49.8,23-708.2,38.3-1875.8,38.3H100V3206.9z"/><path d="M6217.3,4967.9c-149.3-84.2-76.6-195.2,589.6-865.2l658.4-662.3L6504.4,2472C5869,1836.5,5532.1,1469,5513,1400.1c-38.3-168.5,3.8-428.8,91.8-555.1c149.3-206.7,528.3-306.3,746.5-195.2c45.9,23,509.1,467,1029.8,983.8l949.4,945.6l662.3-662.3c677.6-669.9,781-742.7,869-585.7c22.9,49.8,38.3,708.2,38.3,1875.8V5010H8093.1C6933.2,5010,6259.5,4994.7,6217.3,4967.9z"/><path d="M3641-429.7c-42.1-23-501.5-467-1022.1-983.8l-949.4-945.6l-662.3,662.3c-677.6,669.9-781,742.7-869,585.7c-23-49.8-38.3-708.2-38.3-1875.8v-1803h1803.1c1167.6,0,1826,15.3,1875.8,38.3c157,88,84.2,191.4-585.7,869l-658.4,662.3l960.9,968.5c635.4,635.5,972.3,1003,991.5,1071.9c68.9,294.8-65.1,616.4-306.3,731.2C4031.5-380,3755.9-368.5,3641-429.7z"/><path d="M5811.6-452.7C5574.2-567.6,5444-889.1,5513-1180.1c19.1-68.9,356-436.4,991.5-1071.9l960.9-968.5l-658.4-662.3c-669.9-677.6-742.7-781-585.7-869c49.8-22.9,708.2-38.3,1875.8-38.3h1803v1803c0,1167.6-15.3,1826-38.3,1875.8c-88,157-191.4,84.2-869-585.7l-662.3-662.3l-949.4,945.6c-520.7,516.8-983.8,960.8-1029.8,983.8C6232.7-368.5,5957-380,5811.6-452.7z"/></g></g>
</svg>