<?xml version="1.0" encoding="utf-8"?>
<!-- Svg Vector Icons : http://www.onlinewebfonts.com/icon -->
<!DOCTYPE svg PUBLIC "-//W3C//DTD SVG 1.1//EN" "http://www.w3.org/Graphics/SVG/1.1/DTD/svg11.dtd">
<svg version="1.1" xmlns="http://www.w3.org/2000/svg" xmlns:xlink="http://www.w3.org/1999/xlink" x="0px" y="0px" viewBox="0 0 1000 1000" enable-background="new 0 0 1000 1000" xml:space="preserve">
<metadata> Svg Vector Icons : http://www.onlinewebfonts.com/icon </metadata>
<g><g transform="translate(0.000000,511.000000) scale(0.100000,-0.100000)"><path d="M974,2562.7l-874-874h531h528.8v-524.4V639.9H1859h699.2v524.4v524.4H3087h531l-874,874c-480.7,480.7-878.4,874-885,874S1454.7,3043.4,974,2562.7z"/><path d="M4306.2,2213.1v-524.4h2796.9H9900v524.4v524.4H7103.1H4306.2V2213.1z"/><path d="M4306.2,115.5v-524.4h2796.9H9900v524.4v524.4H7103.1H4306.2V115.5z"/><path d="M1159.8-933.4v-524.4H631H100l880.6-878.4l878.4-880.6l878.4,880.6l880.6,878.4h-531h-528.8v524.4v524.4H1859h-699.2V-933.4z"/><path d="M4306.2-1982.2v-524.4h2796.9H9900v524.4v524.4H7103.1H4306.2V-1982.2z"/></g></g>
</svg>